<svg width="32" height="32" viewBox="0 0 32 32" fill="none" xmlns="http://www.w3.org/2000/svg">
  <style>
    @media (prefers-color-scheme: dark) {
      .fill-primary { fill: #D4AF37; }
      .stroke-primary { stroke: #D4AF37; }
    }
    @media (prefers-color-scheme: light) {
      .fill-primary { fill: #8B4513; }
      .stroke-primary { stroke: #8B4513; }
    }
  </style>

  <!-- Violin body outline -->
  <path class="stroke-primary" d="M10 12C10 10 11 8 13 7C15 6 17 6 19 7C21 8 22 10 22 12C22 14 21 16 19 17C17 18 15 18 13 17C11 16 10 14 10 12Z" stroke-width="1.5" fill="none"/>

  <!-- Violin neck -->
  <line class="stroke-primary" x1="16" y1="4" x2="16" y2="7" stroke-width="1.5" stroke-linecap="round"/>

  <!-- Violin strings -->
  <line class="stroke-primary" x1="14" y1="7" x2="14" y1="17" stroke-width="0.5" opacity="0.7"/>
  <line class="stroke-primary" x1="16" y1="7" x2="16" y1="17" stroke-width="0.5" opacity="0.7"/>
  <line class="stroke-primary" x1="18" y1="7" x2="18" y1="17" stroke-width="0.5" opacity="0.7"/>

  <!-- F-holes -->
  <path class="fill-primary" d="M13 11C13 10.5 13.2 10 13.5 10C13.8 10 14 10.5 14 11C14 11.5 13.8 12 13.5 12C13.2 12 13 11.5 13 11Z"/>
  <path class="fill-primary" d="M18 11C18 10.5 18.2 10 18.5 10C18.8 10 19 10.5 19 11C19 11.5 18.8 12 18.5 12C18.2 12 18 11.5 18 11Z"/>

  <!-- Bridge -->
  <rect class="fill-primary" x="14" y="14" width="4" height="1" rx="0.5"/>

  <!-- Tailpiece -->
  <path class="stroke-primary" d="M14 17L16 19L18 17" stroke-width="1" fill="none"/>

  <!-- Musical note accent -->
  <circle class="fill-primary" cx="24" cy="24" r="2"/>
  <line class="stroke-primary" x1="26" y1="24" x2="26" y2="20" stroke-width="1"/>
</svg>
